<svg xmlns="http://www.w3.org/2000/svg" width="36.24" height="36.24" viewBox="0 0 36.24 36.24"><defs><style>.a{fill:#fff;}</style></defs><path class="a" d="M144.987,242.265H129.132a1.132,1.132,0,1,1,0-2.265h15.855a1.132,1.132,0,1,1,0,2.265Z" transform="translate(-118.94 -223.013)"/><path class="a" d="M241.132,146.12A1.136,1.136,0,0,1,240,144.987V129.132a1.132,1.132,0,0,1,2.265,0v15.855A1.136,1.136,0,0,1,241.132,146.12Z" transform="translate(-223.013 -118.94)"/><path class="a" d="M32.085,36.24H4.155A4.157,4.157,0,0,1,0,32.085V4.155A4.157,4.157,0,0,1,4.155,0H32.092A4.155,4.155,0,0,1,36.24,4.155V32.092A4.155,4.155,0,0,1,32.085,36.24ZM4.155,2.265a1.894,1.894,0,0,0-1.89,1.89V32.092a1.893,1.893,0,0,0,1.89,1.883H32.092a1.894,1.894,0,0,0,1.89-1.89V4.155a1.9,1.9,0,0,0-1.9-1.89Z"/></svg>